<svg width="238" height="67" viewBox="0 0 238 67" fill="none" xmlns="http://www.w3.org/2000/svg">
<path fill-rule="evenodd" clip-rule="evenodd" d="M81.9141 67H93.6229L46.8353 0L29.8217 24.355L21.0281 10.2673L14.9586 18.9587L40.1446 58.4041L17.7783 58.3086L24.1345 49.1397L18.5908 40.4483L6.11727 58.2609H6.06948L0 67H11.7088H11.7566H56.4414L35.3177 33.1418L46.8353 16.5709L81.9141 67Z" fill="#242A56"/>
<path d="M104.648 29.6714H111.579C117.735 29.6714 121.348 25.7854 121.348 20.1842C121.348 14.5562 117.494 10.6434 111.499 10.6434H104.648V29.6714ZM109.572 25.1422V15.1726H111.606C114.095 15.1726 116.022 17.3434 116.022 20.1842C116.022 22.9178 114.122 25.1422 111.231 25.1422H109.572Z" fill="#242A56"/>
<path d="M129.03 29.6714H134.275V10.6434H129.03V29.6714Z" fill="#242A56"/>
<path d="M151.874 29.9126C154.818 29.9126 157.789 28.8942 159.501 27.6078V18.7638H151.472V22.8642H154.711V24.633C153.694 25.0886 152.864 25.2494 151.874 25.2494C148.93 25.2494 147.271 22.9178 147.271 20.1842C147.271 16.9414 149.331 15.1458 151.66 15.1458C153.64 15.1458 155.032 16.0838 155.888 16.9146L159.501 13.8862C157.574 11.5814 154.443 10.3486 151.66 10.3486C145.478 10.3486 141.945 14.6902 141.945 20.1842C141.945 26.4554 146.361 29.9126 151.874 29.9126Z" fill="#242A56"/>
<path d="M167.439 29.6714H172.684V10.6434H167.439V29.6714Z" fill="#242A56"/>
<path d="M184.77 29.6714H189.989V15.1726H194.726V10.6434H180.033V15.1726H184.77V29.6714Z" fill="#242A56"/>
<path d="M198.545 29.6714H203.871L204.835 26.5894H210.937L211.9 29.6714H217.199L210.321 10.6434H205.45L198.545 29.6714ZM206.146 22.3282L207.859 16.8342H207.912L209.625 22.3282H206.146Z" fill="#242A56"/>
<path d="M223.926 29.6714H236.585V25.1422H229.172V10.6434H223.926V29.6714Z" fill="#242A56"/>
<path d="M103.176 56.4714H108.502L109.465 53.3894H115.567L116.531 56.4714H121.83L114.952 37.4434H110.081L103.176 56.4714ZM110.776 49.1282L112.489 43.6342H112.543L114.256 49.1282H110.776Z" fill="#242A56"/>
<path d="M136.773 56.7126C139.717 56.7126 142.687 55.6942 144.4 54.4078V45.5638H136.371V49.6642H139.609V51.433C138.593 51.8886 137.763 52.0494 136.773 52.0494C133.829 52.0494 132.169 49.7178 132.169 46.9842C132.169 43.7414 134.23 41.9458 136.559 41.9458C138.539 41.9458 139.931 42.8838 140.787 43.7146L144.4 40.6862C142.473 38.3814 139.342 37.1486 136.559 37.1486C130.376 37.1486 126.844 41.4902 126.844 46.9842C126.844 53.2554 131.259 56.7126 136.773 56.7126Z" fill="#242A56"/>
<path d="M152.204 56.4714H165.398V51.9422H157.128V49.1818H163.15V44.8402H157.128V41.9726H164.836V37.4434H152.204V56.4714Z" fill="#242A56"/>
<path d="M172.951 56.4714H177.929V46.0462H177.982L184.566 56.4714H189.571V37.4434H184.566V48.1902L184.513 48.217L177.795 37.4434H172.951V56.4714Z" fill="#242A56"/>
<path d="M207.062 56.7394C210.434 56.7394 213.164 55.1314 214.797 53.1214L211.077 49.9054C210.06 51.1382 208.641 51.835 207.062 51.835C204.199 51.835 202.486 49.5838 202.486 46.9842C202.486 43.7682 204.707 42.053 207.062 42.053C208.829 42.053 210.274 43.125 211.077 44.0362L214.797 40.847C212.656 38.2474 209.658 37.1486 207.062 37.1486C200.719 37.1486 197.133 41.517 197.133 46.9842C197.133 53.3358 201.442 56.7394 207.062 56.7394Z" fill="#242A56"/>
<path d="M226.547 56.4714H231.739V48.2438L237.895 37.4434H232.007L229.197 43.2322H229.143L226.253 37.4434H220.418L226.547 48.2438V56.4714Z" fill="#242A56"/>
</svg>
