<svg width="171" height="48" viewBox="0 0 171 48" fill="none" xmlns="http://www.w3.org/2000/svg">
<path fill-rule="evenodd" clip-rule="evenodd" d="M58.7657 48H67.1657L33.6 0L21.3943 17.4483L15.0857 7.35567L10.7314 13.5823L28.8 41.8418L12.7543 41.7733L17.3143 35.2046L13.3371 28.9779L4.38857 41.7391H4.35429L0 48H8.4H8.43429H40.4914L25.3371 23.7434L33.6 11.8717L58.7657 48Z" fill="white"/>
<path d="M75.0755 21.2571H80.0483C84.4643 21.2571 87.0563 18.4731 87.0563 14.4603C87.0563 10.4283 84.2915 7.62514 79.9907 7.62514H75.0755V21.2571ZM78.6083 18.0123V10.8699H80.0675C81.8531 10.8699 83.2355 12.4251 83.2355 14.4603C83.2355 16.4187 81.8723 18.0123 79.7987 18.0123H78.6083Z" fill="white"/>
<path d="M92.5673 21.2571H96.3305V7.62514H92.5673V21.2571Z" fill="white"/>
<path d="M108.956 21.4299C111.068 21.4299 113.199 20.7003 114.428 19.7787V13.4427H108.668V16.3803H110.991V17.6475C110.261 17.9739 109.666 18.0891 108.956 18.0891C106.844 18.0891 105.653 16.4187 105.653 14.4603C105.653 12.1371 107.132 10.8507 108.802 10.8507C110.223 10.8507 111.221 11.5227 111.836 12.1179L114.428 9.94834C113.045 8.29714 110.799 7.41394 108.802 7.41394C104.367 7.41394 101.833 10.5243 101.833 14.4603C101.833 18.9531 105.001 21.4299 108.956 21.4299Z" fill="white"/>
<path d="M120.122 21.2571H123.886V7.62514H120.122V21.2571Z" fill="white"/>
<path d="M132.556 21.2571H136.3V10.8699H139.698V7.62514H129.157V10.8699H132.556V21.2571Z" fill="white"/>
<path d="M142.438 21.2571H146.259L146.95 19.0491H151.328L152.019 21.2571H155.821L150.886 7.62514H147.392L142.438 21.2571ZM147.891 15.9963L149.12 12.0603H149.158L150.387 15.9963H147.891Z" fill="white"/>
<path d="M160.647 21.2571H169.728V18.0123H164.41V7.62514H160.647V21.2571Z" fill="white"/>
<path d="M74.0195 40.4571H77.8403L78.5315 38.2491H82.9091L83.6003 40.4571H87.4019L82.4675 26.8251H78.9731L74.0195 40.4571ZM79.4723 35.1963L80.7011 31.2603H80.7395L81.9683 35.1963H79.4723Z" fill="white"/>
<path d="M98.1221 40.6299C100.234 40.6299 102.365 39.9003 103.594 38.9787V32.6427H97.8341V35.5803H100.157V36.8475C99.4277 37.1739 98.8325 37.2891 98.1221 37.2891C96.0101 37.2891 94.8197 35.6187 94.8197 33.6603C94.8197 31.3371 96.2981 30.0507 97.9685 30.0507C99.3893 30.0507 100.388 30.7227 101.002 31.3179L103.594 29.1483C102.212 27.4971 99.9653 26.6139 97.9685 26.6139C93.5333 26.6139 90.9989 29.7243 90.9989 33.6603C90.9989 38.1531 94.1669 40.6299 98.1221 40.6299Z" fill="white"/>
<path d="M109.193 40.4571H118.658V37.2123H112.725V35.2347H117.045V32.1243H112.725V30.0699H118.255V26.8251H109.193V40.4571Z" fill="white"/>
<path d="M124.077 40.4571H127.648V32.9883H127.686L132.41 40.4571H136V26.8251H132.41V34.5243L132.371 34.5435L127.552 26.8251H124.077V40.4571Z" fill="white"/>
<path d="M148.548 40.6491C150.968 40.6491 152.926 39.4971 154.097 38.0571L151.428 35.7531C150.699 36.6363 149.681 37.1355 148.548 37.1355C146.494 37.1355 145.265 35.5227 145.265 33.6603C145.265 31.3563 146.859 30.1275 148.548 30.1275C149.816 30.1275 150.852 30.8955 151.428 31.5483L154.097 29.2635C152.561 27.4011 150.411 26.6139 148.548 26.6139C143.998 26.6139 141.425 29.7435 141.425 33.6603C141.425 38.2107 144.516 40.6491 148.548 40.6491Z" fill="white"/>
<path d="M162.527 40.4571H166.252V34.5627L170.668 26.8251H166.444L164.428 30.9723H164.389L162.316 26.8251H158.13L162.527 34.5627V40.4571Z" fill="white"/>
</svg>
